<?xml version="1.0" encoding="UTF-8"?>
<svg id="Layer_2" data-name="Layer 2" xmlns="http://www.w3.org/2000/svg" viewBox="0 0 1396.92 308.78">
  <defs>
    <style>
      .cls-1 {
        fill: #060419;
      }

      @media (prefers-color-scheme: dark) {
        .cls-1 {
          fill: #ffffff;
        }
      }
    </style>
  </defs>
  <g id="Layer_1-2" data-name="Layer 1">
    <g>
      <g>
        <path class="cls-1" d="M283.19,145.14H42.6c-6.13,0-11.14-5.04-11.14-11.21v-17.09c0-19.33,15.59-35.02,34.81-35.02h192.97c19.21,0,34.81,15.69,34.81,35.02v17.09c.28,6.16-4.73,11.21-10.86,11.21Z"/>
        <path class="cls-1" d="M232.51,63.32H93.28c-6.13,0-11.42-5.04-11.42-11.49C81.87,23.26,104.98,0,133.38,0h59.03c28.4,0,51.51,23.26,51.51,51.84,0,6.44-5.01,11.49-11.42,11.49Z"/>
        <path class="cls-1" d="M294.33,163.63H31.47c-17.26,0-31.47,14.29-31.47,31.66s14.2,31.66,31.47,31.66h93.28c3.34-17.93,18.93-31.66,37.87-31.66s34.81,13.73,38.15,31.66h93.28c17.26,0,31.47-14.29,31.47-31.66s-13.92-31.66-31.19-31.66Z"/>
        <path class="cls-1" d="M282.91,245.45h-81.59v63.32h61.26c17.26,0,31.47-14.29,31.47-31.66v-20.17c.28-6.16-4.73-11.49-11.14-11.49Z"/>
        <path class="cls-1" d="M42.6,245.45c-6.13,0-11.42,5.04-11.42,11.49v20.17c0,17.37,14.2,31.66,31.47,31.66h61.26v-63.32c.28,0-81.31,0-81.31,0Z"/>
      </g>
      <path class="cls-1" d="M558.67,182.5c0,46.73-32.09,76.74-74,76.74-20.01,0-35.87-6.46-46.44-19.38v17.1h-41.15V51.43h43.04v72.57c10.95-12.16,26.05-18.24,44.55-18.24,41.53,0,74,30.01,74,76.75ZM514.88,182.5c0-25.84-16.23-41.41-37.76-41.41s-37.76,15.58-37.76,41.41,16.23,41.41,37.76,41.41,37.76-15.58,37.76-41.41Z"/>
      <path class="cls-1" d="M696.13,210.24l23.03,25.08c-13.59,15.96-34.36,23.93-61.16,23.93-51.35,0-84.57-32.29-84.57-76.75s33.6-76.74,79.29-76.74c41.91,0,76.27,27.73,76.65,75.61l-109.87,21.27c6.42,14.82,20.01,22.04,39.27,22.04,15.86,0,27.18-4.56,37.38-14.44ZM615.33,177.94l72.11-14.06c-4.15-15.2-16.99-25.46-35.11-25.46-21.14,0-36.25,14.44-37,39.51Z"/>
      <path class="cls-1" d="M864.98,210.24l23.03,25.08c-13.6,15.96-34.36,23.93-61.17,23.93-51.35,0-84.57-32.29-84.57-76.75s33.6-76.74,79.29-76.74c41.9,0,76.26,27.73,76.64,75.61l-109.49,21.27c6.42,14.82,20.01,22.04,39.26,22.04,15.48,0,26.81-4.56,37.01-14.44ZM784.18,177.94l72.11-14.06c-4.15-15.2-16.99-25.46-35.11-25.46-21.15,0-35.87,14.44-37,39.51Z"/>
      <path class="cls-1" d="M1073.54,171.87v85.48h-43.04v-79.02c0-23.94-10.95-35.33-30.2-35.33-20.77,0-35.49,12.92-35.49,40.27v73.7h-43.04V51.43h43.04v72.19c11.7-11.78,28.31-17.86,47.19-17.86,35.12,0,61.54,20.52,61.54,66.11Z"/>
      <path class="cls-1" d="M1095.77,64.09c0-12.04,9.64-21.41,23.59-21.41s23.6,8.7,23.6,20.4c0,12.71-9.64,22.07-23.6,22.07s-23.59-9.03-23.59-21.07Z"/>
      <path class="cls-1" d="M1097.84,108.04h43.04v149.31h-43.04V108.04Z"/>
      <path class="cls-1" d="M1163.2,108.04h43.04v149.31h-43.04V108.04Z"/>
      <path class="cls-1" d="M1396.92,108.04l-62.67,149.31h-44.56l-62.29-149.31h44.55l41.15,101.44,42.29-101.44h41.53Z"/>
      <path class="cls-1" d="M1161.12,64.09c0-12.04,9.64-21.41,23.59-21.41s23.6,8.7,23.6,20.4c0,12.71-9.64,22.07-23.6,22.07s-23.59-9.03-23.59-21.07Z"/>
    </g>
  </g>
</svg>