<?xml version="1.0" encoding="UTF-8"?>
<svg width="180px" height="180px" viewBox="0 0 180 180" version="1.1" xmlns="http://www.w3.org/2000/svg" xmlns:xlink="http://www.w3.org/1999/xlink">
    <title>logo</title>
    <defs>
        <path d="M6,0 L109.644188,0 L109.644188,0 L120,0 C123.313708,-8.55003309e-15 126,2.6862915 126,6 L126,120 C126,123.313708 123.313708,126 120,126 L6,126 C2.6862915,126 4.05812251e-16,123.313708 0,120 L0,6 C-4.05812251e-16,2.6862915 2.6862915,6.08718376e-16 6,0 Z" id="path-1"></path>
    </defs>
    <g id="Symbols" stroke="none" stroke-width="1" fill="none" fill-rule="evenodd">
        <g id="logo">
            <g transform="translate(90.000000, 90.000000) rotate(-45.000000) translate(-90.000000, -90.000000) translate(27.000000, 27.000000)">
                <g id="box" stroke-linejoin="square">
                    <path stroke="#FFFFFF" stroke-width="8" d="M120,4 L6,4 C5.44771525,4 4.94771525,4.22385763 4.58578644,4.58578644 C4.22385763,4.94771525 4,5.44771525 4,6 L4,120 C4,120.552285 4.22385763,121.052285 4.58578644,121.414214 C4.94771525,121.776142 5.44771525,122 6,122 L120,122 C120.552285,122 121.052285,121.776142 121.414214,121.414214 C121.776142,121.052285 122,120.552285 122,120 L122,6 C122,5.44771525 121.776142,4.94771525 121.414214,4.58578644 C121.052285,4.22385763 120.552285,4 120,4 Z" fill="#FF9843" fill-rule="evenodd"></path>
                    <path stroke="#8E460B" stroke-width="4" d="M120,2 L6,2 C4.8954305,2 3.8954305,2.44771525 3.17157288,3.17157288 C2.44771525,3.8954305 2,4.8954305 2,6 L2,120 C2,121.104569 2.44771525,122.104569 3.17157288,122.828427 C3.8954305,123.552285 4.8954305,124 6,124 L120,124 C121.104569,124 122.104569,123.552285 122.828427,122.828427 C123.552285,122.104569 124,121.104569 124,120 L124,6 C124,4.8954305 123.552285,3.8954305 122.828427,3.17157288 C122.104569,2.44771525 121.104569,2 120,2 Z"></path>
                </g>
                <path id="response-arrow" d="M72.7649597,71 C72.9872126,71 73.2064133,71.0517463 73.4052024,71.1511408 L73.4052024,71.1511408 L94.5416362,81.7193577 C95.2488288,82.072954 95.5354752,82.9328933 95.1818789,83.640086 C95.0433495,83.9171449 94.8186951,84.1417992 94.5416362,84.2803287 L94.5416362,84.2803287 L73.4052024,94.8485456 C72.6980098,95.2021419 71.8380705,94.9154954 71.4844741,94.2083028 C71.3850796,94.0095137 71.3333333,93.790313 71.3333333,93.5680601 L71.3333333,93.5680601 L71.333,85 L65,85 C63.8954305,85 63,84.1045695 63,83 C63,81.9456382 63.8158778,81.0818349 64.8507377,81.0054857 L65,81 L71.333,81 L71.3333333,72.4316263 C71.3333333,71.6874707 71.901105,71.0759252 72.6270845,71.0065536 Z M41,81 C42.1045695,81 43,81.8954305 43,83 C43,84.0543618 42.1841222,84.9181651 41.1492623,84.9945143 L41,85 L33,85 C31.8954305,85 31,84.1045695 31,83 C31,81.9456382 31.8158778,81.0818349 32.8507377,81.0054857 L33,81 L41,81 Z M57,81 C58.1045695,81 59,81.8954305 59,83 C59,84.0543618 58.1841222,84.9181651 57.1492623,84.9945143 L57,85 L49,85 C47.8954305,85 47,84.1045695 47,83 C47,81.9456382 47.8158778,81.0818349 48.8507377,81.0054857 L49,81 L57,81 Z" fill="#8E460B" fill-rule="nonzero"></path>
                <path id="request-arrow" d="M53.5947976,39.1514544 C54.3019902,38.7978581 55.1619295,39.0845046 55.5155259,39.7916972 C55.6149204,39.9904863 55.6666667,40.209687 55.6666667,40.4319399 L55.6666667,40.4319399 L55.666,49 L94,49 C95.1045695,49 96,49.8954305 96,51 C96,52.0543618 95.1841222,52.9181651 94.1492623,52.9945143 L94,53 L55.666,53 L55.6666667,61.5683737 C55.6666667,62.3125293 55.098895,62.9240748 54.3729155,62.9934464 L54.2350403,63 C54.0127874,63 53.7935867,62.9482537 53.5947976,62.8488592 L53.5947976,62.8488592 L32.4583638,52.2806423 C31.7511712,51.927046 31.4645248,51.0671067 31.8181211,50.359914 C31.9566505,50.0828551 32.1813049,49.8582008 32.4583638,49.7196713 L32.4583638,49.7196713 Z" fill="#8E460B" fill-rule="nonzero"></path>
            </g>
        </g>
    </g>
</svg>