<?xml version="1.0" encoding="UTF-8"?>
<svg width="92px" height="92px" viewBox="0 0 92 92" version="1.1" xmlns="http://www.w3.org/2000/svg" xmlns:xlink="http://www.w3.org/1999/xlink">
    <title>standalone</title>
    <g id="Page-1" stroke="none" stroke-width="1" fill="none" fill-rule="evenodd">
        <g id="Logo" transform="translate(2.000000, 3.000000)">
            <g id="standalone" transform="translate(-2.000000, -3.000000)">
                <rect id="background" fill="#172126" x="23" y="25" width="45" height="42"></rect>
                <path d="M70,14 C74.418278,14 78,17.581722 78,22 L78,70 C78,74.418278 74.418278,78 70,78 L22,78 C17.581722,78 14,74.418278 14,70 L14,22 C14,17.581722 17.581722,14 22,14 L70,14 Z M49.5984769,51.1565029 C49.5336543,51.29155 49.5,51.4394351 49.5,51.589234 L49.5,60.410766 C49.5,60.9630508 49.9477153,61.410766 50.5,61.410766 C50.6497989,61.410766 50.7976839,61.3771117 50.9327311,61.3122891 L60.121827,56.9015231 C60.6197244,56.6625323 60.8296097,56.0651664 60.590619,55.5672689 C60.4922073,55.3622447 60.3268512,55.1968886 60.121827,55.0984769 L50.9327311,50.6877109 C50.4348336,50.4487201 49.8374677,50.6586055 49.5984769,51.1565029 Z M35,55 L31,55 C30.4477153,55 30,55.4477153 30,56 C30,56.5522847 30.4477153,57 31,57 L35,57 C35.5522847,57 36,56.5522847 36,56 C36,55.4477153 35.5522847,55 35,55 Z M45,55 L41,55 C40.4477153,55 40,55.4477153 40,56 C40,56.5522847 40.4477153,57 41,57 L45,57 C45.5522847,57 46,56.5522847 46,56 C46,55.4477153 45.5522847,55 45,55 Z M40.1753169,31.6433105 L40.0672689,31.6877109 L30.878173,36.0984769 C30.6731488,36.1968886 30.5077927,36.3622447 30.409381,36.5672689 C30.187461,37.0296023 30.3525822,37.5777018 30.7759477,37.8449923 L30.878173,37.9015231 L40.0672689,42.3122891 C40.2023161,42.3771117 40.3502011,42.410766 40.5,42.410766 C41.0128358,42.410766 41.4355072,42.0247258 41.4932723,41.5273872 L41.5,41.410766 L41.5,38 L60,38 C60.5522847,38 61,37.5522847 61,37 C61,36.4871642 60.6139598,36.0644928 60.1166211,36.0067277 L60,36 L41.5,36 L41.5,32.589234 C41.5,32.4394351 41.4663457,32.29155 41.4015231,32.1565029 C41.1796031,31.6941696 40.6486759,31.4801732 40.1753169,31.6433105 Z" id="Combined-Shape" fill="#FF6A33" transform="translate(46.000000, 46.000000) rotate(-45.000000) translate(-46.000000, -46.000000) "></path>
            </g>
        </g>
    </g>
</svg>