<?xml version="1.0" encoding="UTF-8"?>
<svg width="128px" height="128px" viewBox="0 0 128 128" version="1.1" xmlns="http://www.w3.org/2000/svg" xmlns:xlink="http://www.w3.org/1999/xlink">
    <title>msw-logo-black</title>
    <g id="msw-logo-black" stroke="none" stroke-width="1" fill="none" fill-rule="evenodd">
        <rect id="BACKGROUND" fill="#000000" fill-rule="nonzero" x="0" y="0" width="128" height="128" rx="24"></rect>
        <g id="ARROWS" transform="translate(6.2029, 23.1031)" fill-rule="nonzero">
            <path d="M19.3167454,22.4344891 C19.8629209,17.1859135 22.4665735,12.4630829 26.4826012,9.20410442 C30.4986289,5.9451259 35.6563455,4.36965946 40.9049208,4.915835 C45.7438889,5.41938597 50.2242586,7.69933906 53.4796443,11.3148112 L87.3784993,48.9633038 C90.9094459,52.8848173 92.6717539,57.9817187 92.4010732,63.146615 C92.1303925,68.311511 89.8449674,73.1962798 85.9234538,76.7272265 C82.3079818,79.9826122 77.6138361,81.7817492 72.7487409,81.7767424 L26.796742,81.7293417 C23.4940972,81.7259357 20.3788516,80.4045088 18.092446,78.1133827 C15.8060415,75.8222571 14.4910429,72.7042926 14.4944423,69.4016479 L14.4944423,68.9409857 L19.3167454,22.4344891 Z M37.8247886,23.181042 C37.4789277,23.4617057 37.2670556,23.8460258 37.220421,24.2941638 L33.1302074,63.7357423 L72.767304,63.7767424 C73.1265439,63.7767424 73.4747387,63.6609157 73.760571,63.4478211 L73.8791029,63.3506197 C74.2164542,63.0468671 74.4024306,62.6493694 74.4257416,62.204568 C74.4490527,61.7597662 74.3056449,61.345006 74.0018925,61.0076547 L40.1030374,23.3591621 C39.8283192,23.0540566 39.4502261,22.8616541 39.0418711,22.81916 C38.5903583,22.7721748 38.1706495,22.9003783 37.8247886,23.181042 Z" id="BACK" fill="#FFFFFF"></path>
            <path d="M12.3277519,11.0000065 L14.0702738,11.0012327 C14.0464748,11.2233629 14.0286659,11.4465252 14.0169284,11.6704908 C13.8475271,14.9028594 14.9533206,18.1010067 17.1632226,20.5553515 L73.1672241,82.7540964 C75.1011351,84.9019222 77.7251675,86.2973544 80.5764425,86.7048446 L80.5679108,86.7883896 C80.2260777,90.0732982 78.5923668,93.0367273 76.0789987,95.0763082 C73.5656313,97.1158881 70.3293246,98.1044442 67.0444168,97.7626113 C64.0131386,97.4471717 61.2064975,96.0189391 59.1672241,93.7540964 L3.16322258,31.5553515 C0.953320601,29.1010067 -0.152472904,25.9028594 0.0169283587,22.6704908 C0.186329621,19.4381222 1.62036289,16.3730815 4.07470769,14.1631796 C6.33954619,12.1239098 9.28009544,10.9968768 12.3277519,11.0000065 Z M39.0940228,18.0120082 L82.4620228,18.0570082 L77.9840228,61.2040082 L39.0940228,18.0120082 Z" id="Combined-Shape" fill="#000000"></path>
            <path d="M26.3277519,6.50072531e-06 L88.7975532,0.0644398911 C92.100198,0.0678458751 95.2154436,1.38927279 97.5018492,3.68039888 C99.7882501,5.97152082 101.103248,9.08947857 101.099855,12.392116 L101.099855,12.8532345 L101.051774,13.3118898 L94.5679108,75.7883896 C94.2260777,79.0732982 92.5923668,82.0367273 90.0789987,84.0763082 C87.5656313,86.1158881 84.3293246,87.1044442 81.0444168,86.7626113 C78.0131386,86.4471717 75.2064975,85.0189391 73.1672241,82.7540964 L17.1632226,20.5553515 C14.9533206,18.1010067 13.8475271,14.9028594 14.0169284,11.6704908 C14.1863296,8.43812215 15.6203629,5.37308155 18.0747077,3.16317957 C20.3395462,1.12390983 23.2800954,-0.00312319008 26.3277519,6.50072531e-06 Z M39.0940228,18.0120082 L77.9840228,61.2040082 L82.4620228,18.0570082 L39.0940228,18.0120082 Z" id="FRONT" fill="#FFFFFF"></path>
        </g>
    </g>
</svg>