<?xml version="1.0" encoding="UTF-8"?>
<svg width="256px" height="256px" viewBox="0 0 256 256" version="1.1" xmlns="http://www.w3.org/2000/svg" xmlns:xlink="http://www.w3.org/1999/xlink">
    <title>avatar</title>
    <g id="avatar" stroke="none" stroke-width="1" fill="none" fill-rule="evenodd">
        <rect fill="#000000" x="0" y="0" width="256" height="256"></rect>
        <g id="Group" transform="translate(-44.000000, -45.000000)" stroke-width="33.6">
            <g id="Group" transform="translate(171.500000, 173.000000) rotate(-42.000000) translate(-171.500000, -173.000000) translate(58.016384, 42.539160)">
                <path d="M120.127456,74.8044682 C125.667977,74.8044682 130.683977,77.0502079 134.314846,80.6810777 C137.945716,84.3119476 140.191456,89.3279476 140.191456,94.8684682 C140.191456,99.8261526 138.355964,104.608295 135.038895,108.292815 L135.038895,108.292815 L77.0939006,172.656712 C75.9409963,173.93733 74.3781642,174.629406 72.7834036,174.7131 C71.188643,174.796795 69.561954,174.272109 68.2813357,173.119205 C68.1191923,172.973232 67.9648159,172.818856 67.8188428,172.656712 L67.8188428,172.656712 L9.87384833,108.292815 C6.16681741,104.175134 4.47975047,98.9447035 4.74886131,93.8169349 C5.01797215,88.6891663 7.24326078,83.66406 11.360941,79.957029 C15.045461,76.63996 19.827603,74.8044682 24.7852875,74.8044682 L24.7852875,74.8044682 Z" id="back" stroke="#7A1818" transform="translate(72.456372, 130.460840) rotate(90.000000) translate(-72.456372, -130.460840) "></path>
                <path d="M233.228103,74.8044682 C234.951231,74.8044682 236.511231,75.502904 237.640449,76.6321219 C238.769667,77.7613398 239.468103,79.3213398 239.468103,81.0444682 C239.468103,82.5863318 238.897256,84.0736008 237.865632,85.2195042 L237.865632,85.2195042 L159.148389,172.656712 C157.995485,173.93733 156.432653,174.629406 154.837892,174.7131 C153.243131,174.796795 151.616442,174.272109 150.335824,173.119205 C150.173681,172.973232 150.019304,172.818856 149.873331,172.656712 L149.873331,172.656712 L71.1560886,85.2195042 C70.0031843,83.9388859 69.4784984,82.3121969 69.5621932,80.7174363 C69.6458879,79.1226757 70.3379633,77.5598436 71.6185816,76.4069393 C72.7644849,75.3753149 74.251754,74.8044682 75.7936176,74.8044682 L75.7936176,74.8044682 Z" id="front" stroke="#FF6A33" transform="translate(154.510860, 130.460840) rotate(-90.000000) translate(-154.510860, -130.460840) "></path>
            </g>
        </g>
    </g>
</svg>