<?xml version="1.0" encoding="UTF-8"?>
<svg width="128px" height="128px" viewBox="0 0 128 128" version="1.1" xmlns="http://www.w3.org/2000/svg" xmlns:xlink="http://www.w3.org/1999/xlink">
    <title>LOGO</title>
    <g id="LOGO" stroke="none" stroke-width="1" fill="none" fill-rule="evenodd">
        <rect id="Rectangle" fill="#000000" x="0" y="0" width="128" height="128" rx="24"></rect>
        <g id="logo" transform="translate(-27.172013, -27.850148)" stroke-width="17.85">
            <g id="Group" transform="translate(91.172013, 91.850148) rotate(-42.000000) translate(-91.172013, -91.850148) translate(30.956217, 22.472129)">
                <path d="M63.77676,39.8567809 C66.7201615,39.8567809 69.3849115,41.0498301 71.3138112,42.9787297 C73.2427108,44.9076293 74.43576,47.5723793 74.43576,50.5157809 C74.43576,53.1536096 73.4576536,55.6977418 71.690581,57.6562093 L40.9074742,91.7734893 C40.2942428,92.4531409 39.4635827,92.8198888 38.6163176,92.863416 C37.7690524,92.9069431 36.9051822,92.6272495 36.2255306,92.0140181 L5.20189513,57.6562093 C3.23012026,55.470868 2.33079774,52.693193 2.47075426,49.9689097 C2.61071079,47.2446264 3.78994636,44.5737347 5.97528769,42.6019599 C7.93375514,40.8348872 10.4778874,39.8567809 13.1157161,39.8567809 Z" id="back" stroke="#FF3333" opacity="0.48" transform="translate(38.446238, 69.378019) rotate(90.000000) translate(-38.446238, -69.378019) "></path>
                <path d="M123.833688,39.8567809 C124.7491,39.8567809 125.57785,40.2278249 126.177747,40.8277219 C126.777644,41.4276189 127.148688,42.2563689 127.148688,43.1717809 C127.148688,43.9921582 126.844492,44.7833955 126.294924,45.3924883 L84.4465906,91.7734893 C83.8333592,92.4531409 83.0026991,92.8198888 82.1554339,92.863416 C81.3081688,92.9069431 80.4442986,92.6272495 79.764647,92.0140181 L37.6757849,45.3924883 C37.0625535,44.7128367 36.7828599,43.8489665 36.826387,43.0017013 C36.8699142,42.1544362 37.2366621,41.3237761 37.9163137,40.7105447 C38.5254064,40.1609766 39.3166437,39.8567809 40.1370211,39.8567809 Z" id="front" stroke="#FF6A33" transform="translate(81.985354, 69.378019) rotate(-90.000000) translate(-81.985354, -69.378019) "></path>
            </g>
        </g>
    </g>
</svg>