<?xml version="1.0" encoding="UTF-8"?>
<svg width="128px" height="128px" viewBox="0 0 128 128" version="1.1" xmlns="http://www.w3.org/2000/svg" xmlns:xlink="http://www.w3.org/1999/xlink">
    <title>msw-logo</title>
    <g id="msw-logo" stroke="none" stroke-width="1" fill="none" fill-rule="evenodd">
        <rect id="BACKGROUND" fill="#000000" fill-rule="nonzero" x="0" y="0" width="128" height="128" rx="24"></rect>
        <g id="ARROWS" transform="translate(6.467, -0.2985)" fill-rule="nonzero">
            <path d="M19.0525974,45.8361396 C19.5987729,40.587564 22.2024255,35.8647334 26.2184532,32.6057549 C30.234481,29.3467764 35.3921975,27.7713099 40.6407728,28.3174855 C45.4797409,28.8210365 49.9601106,31.1009895 53.2154963,34.7164617 L87.1143513,72.3649543 C90.6452979,76.2864678 92.4076059,81.3833692 92.1369253,86.5482655 C91.8662445,91.7131615 89.5808194,96.5979303 85.6593058,100.128877 C82.0438338,103.384263 77.3496882,105.1834 72.484593,105.178393 L26.532594,105.130992 C23.2299492,105.127586 20.1147037,103.806159 17.8282981,101.515033 C15.5418935,99.2239076 14.2268949,96.1059431 14.2302943,92.8032983 L14.2302943,92.3426362 L19.0525974,45.8361396 Z M37.5606407,46.5826925 C37.2147797,46.8633562 37.0029076,47.2476763 36.956273,47.6958143 L32.8660594,87.1373928 L72.5031561,87.1783929 C72.862396,87.1783929 73.2105907,87.0625661 73.496423,86.8494716 L73.6149549,86.7522702 C73.9523063,86.4485176 74.1382826,86.0510199 74.1615936,85.6062185 C74.1849047,85.1614166 74.041497,84.7466565 73.7377445,84.4093052 L39.8388895,46.7608126 C39.5641713,46.4557071 39.1860781,46.2633046 38.7777231,46.2208105 C38.3262104,46.1738253 37.9065016,46.3020288 37.5606407,46.5826925 Z" id="BACK" fill="#7A1818"></path>
            <path d="M26.063604,23.401657 L88.5334052,23.4660904 C91.8360501,23.4694964 94.9512957,24.7909233 97.2377012,27.0820494 C99.5241021,29.3731713 100.8391,32.4911291 100.835707,35.7937665 L100.835707,36.2548849 L100.787626,36.7135403 L94.3037628,99.1900401 C93.9619297,102.474949 92.3282188,105.438378 89.8148507,107.477959 C87.3014833,109.517539 84.0651766,110.506095 80.7802689,110.164262 C77.7489906,109.848822 74.9423496,108.42059 72.9030761,106.155747 L16.8990746,43.957002 C14.6891726,41.5026572 13.5833791,38.3045099 13.7527804,35.0721413 C13.9221816,31.8397726 15.3562149,28.774732 17.8105597,26.5648301 C20.0753982,24.5255603 23.0159475,23.3985273 26.063604,23.401657 Z M38.8298748,41.4136587 L77.7198748,84.6056587 L82.1978748,41.4586587 L38.8298748,41.4136587 Z" id="FRONT" fill="#FF6A33"></path>
        </g>
    </g>
</svg>