<?xml version="1.0" encoding="utf-8"?>
<svg version="1.1" id="Calque_1" xmlns="http://www.w3.org/2000/svg" xmlns:xlink="http://www.w3.org/1999/xlink" x="0px" y="0px"
	 viewBox="0 0 186.2 52.7" style="enable-background:new 0 0 186.2 52.7;" xml:space="preserve">
<style>
  @media (prefers-color-scheme: dark) {
      path { fill: #fff !important; }
  }
</style>
<style type="text/css">
	.st0{fill:#FFFFFF;filter:url(#Adobe_OpacityMaskFilter);}
	.st1{mask:url(#mask0_779_897_00000176751413942590761580000000483179156652774065_);}
	.st2{fill:#1A1A1A;}
</style>
<defs>
	<filter id="Adobe_OpacityMaskFilter" filterUnits="userSpaceOnUse" x="0" y="0" width="186.2" height="52.7">
		<feColorMatrix  type="matrix" values="1 0 0 0 0  0 1 0 0 0  0 0 1 0 0  0 0 0 1 0"/>
	</filter>
</defs>
<mask maskUnits="userSpaceOnUse" x="0" y="0" width="186.2" height="52.7" id="mask0_779_897_00000176751413942590761580000000483179156652774065_">
	<path class="st0" d="M197.7-16.7h-209v86h209V-16.7z"/>
</mask>
<g class="st1">
	<path class="st2" d="M8.6,21.6c1.3-4.7,4.4-8.7,8.6-11.2l-4-6.8C7.2,7,2.7,12.8,0.9,19.5L8.6,21.6L8.6,21.6z"/>
	<path class="st2" d="M21.7,8.5c1.6-0.4,3.2-0.6,4.8-0.6V0c-2.3,0-4.6,0.3-6.8,0.9L21.7,8.5z"/>
	<path class="st2" d="M31.3,8.5c4.7,1.3,8.8,4.4,11.2,8.6l6.9-4c-3.5-6-9.3-10.5-16.1-12.3L31.3,8.5L31.3,8.5z"/>
	<path class="st2" d="M0,26.3c0,2.3,0.3,4.6,0.9,6.8l7.7-2c-0.4-1.6-0.6-3.2-0.6-4.8H0z"/>
	<path class="st2" d="M3.5,39.5c1.2,2,2.6,3.8,4.2,5.4l5.6-5.6c-1.1-1.1-2.1-2.4-2.9-3.8L3.5,39.5z"/>
	<path class="st2" d="M13.2,49.1c4,2.3,8.6,3.5,13.2,3.5v-7.9c-3.2,0-6.4-0.8-9.2-2.5L13.2,49.1z"/>
	<path class="st2" d="M42.5,35.6c-2.5,4.2-6.5,7.3-11.2,8.6l2.1,7.6c6.8-1.8,12.6-6.2,16.1-12.3L42.5,35.6L42.5,35.6z"/>
	<path class="st2" d="M52.4,33.1c1.2-4.5,1.2-9.2,0.1-13.7l-7.7,2c0.8,3.1,0.8,6.4-0.1,9.6L52.4,33.1z"/>
	<path class="st2" d="M83.8,23.5c-0.9-2.4-3-3.8-5.2-3.8c-3.5,0-5.8,2.9-5.8,6.3s2.4,6.4,5.8,6.4c2.2,0,4.1-1.2,5.2-3.6h5.8
		c-1.3,5.2-5.8,8.5-10.9,8.5c-3,0-5.8-1-8.1-3.2c-2.3-2.3-3.3-5-3.3-8.3c0-5.7,4.9-10.9,11.1-10.9c3,0,5.4,0.8,7.5,2.6
		c2,1.7,3.3,3.7,3.7,5.9H83.8L83.8,23.5z"/>
	<path class="st2" d="M100.3,37.3c-4.9,0-8.7-3.6-8.7-8.6c0-4.9,3.9-8.6,8.7-8.6c4.9,0,8.7,3.6,8.7,8.5S105.1,37.3,100.3,37.3
		 M104.1,28.8c0-2.2-1.6-4.1-3.9-4.1c-2.1,0-3.9,1.9-3.9,4.1c0,2.2,1.7,4.1,3.9,4.1C102.4,32.8,104.1,30.9,104.1,28.8z"/>
	<path class="st2" d="M124,36.8v-1.7H124c-0.9,1.5-2.5,2.3-4.9,2.3c-4.9,0-8.1-3.8-8.1-8.6s3.3-8.6,8-8.6c1.9,0,3.4,0.6,4.8,1.9
		v-6.8h4.9v21.5H124z M124,28.7c0-2.2-1.7-4-4.1-4c-2.4,0-4.1,1.7-4.1,4c0,2.4,1.7,4.2,4.1,4.2S124,31.1,124,28.7"/>
	<path class="st2" d="M144.3,36.8v-1.7h-0.1c-0.7,1.4-2.6,2.3-4.8,2.3c-4.8,0-8.1-3.8-8.1-8.6c0-4.9,3.5-8.6,8.1-8.6
		c2,0,3.8,0.8,4.8,2.3h0.1v-1.7h4.9v16.1H144.3z M144.3,28.7c0-2.3-1.8-4.1-4.1-4.1c-2.3,0-4,1.8-4,4.2c0,2.3,1.8,4.1,4,4.1
		C142.5,32.9,144.3,31.1,144.3,28.7"/>
	<path class="st2" d="M164.2,26.9c-0.7-1.5-2-2.3-3.6-2.3c-2.2,0-3.7,1.8-3.7,4.1s1.6,4.1,3.9,4.1c1.6,0,2.8-0.8,3.5-2.2h4.9
		c-1,4-4.4,6.7-8.6,6.7c-4.8,0-8.6-3.9-8.6-8.6s3.8-8.6,8.5-8.6c4.3,0,7.7,2.7,8.7,6.8L164.2,26.9L164.2,26.9z"/>
	<path class="st2" d="M173,42.2l2.6-6.2l-6-15.3h5.2l3.2,9.4h0.1l3.1-9.4h5.1l-8.1,21.5H173z"/>
</g>
</svg>
