<?xml version="1.0" encoding="utf-8"?>
<svg width="548" height="91" viewBox="0 0 548 91" fill="none" xmlns="http://www.w3.org/2000/svg" xmlns:xlink="http://www.w3.org/1999/xlink">
  <style>
    @media (prefers-color-scheme: dark) {
      path { fill: #fff !important; }
    }
  </style>
  <g clip-path="url(#clip0_856_277)">
    <path d="M0.400391 89.0544L34.329 2.18359H45.6386L11.5909 89.0544H0.400391Z" fill="#0B151E"/>
    <path d="M67.7479 28.5341C82.5472 28.5341 92.8942 36.9559 94.9417 50.0715H83.6322C81.707 42.6123 75.69 38.6396 68.1117 38.6396C57.4042 38.6396 50.0641 46.8199 50.0641 59.5749C50.0641 72.33 56.9213 80.3912 67.6321 80.3912C75.6933 80.3912 81.7103 76.1803 83.7546 69.2008H95.0641C92.7784 81.9559 81.8294 90.4967 67.6321 90.4967C50.3056 90.4967 38.877 78.2246 38.877 59.694C38.877 41.1634 50.547 28.5308 67.7545 28.5308L67.7479 28.5341Z" fill="#0B151E"/>
    <path d="M131.385 28.6531C148.953 28.6531 161.947 41.4081 161.947 59.5749C161.947 77.7416 148.953 90.4967 131.385 90.4967C113.817 90.4967 100.705 77.7416 100.705 59.5749C100.705 41.4081 113.698 28.6531 131.385 28.6531ZM131.385 80.3912C142.695 80.3912 150.637 71.847 150.637 59.5749C150.637 47.3027 142.695 38.7586 131.385 38.7586C120.076 38.7586 112.134 47.3027 112.134 59.5749C112.134 71.847 119.953 80.3912 131.385 80.3912Z" fill="#0B151E"/>
    <path d="M168.193 59.8164C168.193 41.7687 178.663 28.534 196.108 28.534C205.132 28.534 212.714 32.5035 216.683 39.7245V0.5H227.874V89.0545H217.768L216.806 78.347C212.955 86.4082 205.013 90.5 195.629 90.5C178.544 90.5 168.197 77.7449 168.197 59.8197L168.193 59.8164ZM216.561 59.4558C216.561 47.4252 209.462 38.7619 197.911 38.7619C186.36 38.7619 179.622 47.4252 179.622 59.4558C179.622 71.4865 186.36 80.2721 197.911 80.2721C209.462 80.2721 216.561 71.7279 216.561 59.4558Z" fill="#0B151E"/>
    <path d="M234.367 59.6977C234.367 41.2895 246.037 28.5344 263.122 28.5344C280.207 28.5344 290.796 40.0854 290.796 57.531V61.7419L245.316 61.861C246.16 74.2555 252.656 81.1127 263.847 81.1127C272.629 81.1127 278.405 77.5038 280.33 70.7657H290.918C288.03 83.3984 278.163 90.4971 263.605 90.4971C246.279 90.4971 234.367 77.9835 234.367 59.6944V59.6977ZM245.558 54.2827H279.49C279.49 44.5378 273.112 38.0412 263.126 38.0412C253.139 38.0412 247.003 43.9358 245.558 54.2827Z" fill="#0B151E"/>
    <path d="M297.414 89.0549V30.2181H307.52L308.601 37.9188C311.608 32.3848 317.867 28.5344 326.169 28.5344C335.312 28.5344 341.812 33.1059 344.819 40.446C347.588 33.1059 354.686 28.5344 363.829 28.5344C377.305 28.5344 385.486 36.9562 385.486 50.5515V89.0549H374.418V53.3201C374.418 44.0549 369.244 38.7623 361.302 38.7623C352.758 38.7623 347.105 44.7793 347.105 54.1636V89.0549H335.914V53.2011C335.914 43.9358 330.86 38.8814 322.921 38.8814C314.377 38.8814 308.724 44.776 308.724 54.1603V89.0516H297.414V89.0549Z" fill="#0B151E"/>
    <path d="M423.742 28.6531C441.31 28.6531 454.303 41.4081 454.303 59.5749C454.303 77.7416 441.31 90.4967 423.742 90.4967C406.174 90.4967 393.062 77.7416 393.062 59.5749C393.062 41.4081 406.055 28.6531 423.742 28.6531ZM423.742 80.3912C435.051 80.3912 442.994 71.847 442.994 59.5749C442.994 47.3027 435.051 38.7586 423.742 38.7586C412.432 38.7586 404.49 47.3027 404.49 59.5749C404.49 71.847 412.31 80.3912 423.742 80.3912Z" fill="#0B151E"/>
    <path d="M460.549 59.8164C460.549 41.7687 471.018 28.534 488.464 28.534C497.488 28.534 505.069 32.5035 509.039 39.7245V0.5H520.229V89.0545H510.124L509.161 78.347C505.311 86.4082 497.369 90.5 487.984 90.5C470.899 90.5 460.552 77.7449 460.552 59.8197L460.549 59.8164ZM508.916 59.4558C508.916 47.4252 501.818 38.7619 490.267 38.7619C478.716 38.7619 471.977 47.4252 471.977 59.4558C471.977 71.4865 478.716 80.2721 490.267 80.2721C501.818 80.2721 508.916 71.7279 508.916 59.4558Z" fill="#0B151E"/>
    <path d="M530.335 82.0779C530.335 77.384 534.304 73.5337 538.998 73.5337C543.692 73.5337 547.542 77.384 547.542 82.0779C547.542 86.7717 543.573 90.4997 538.998 90.4997C534.423 90.4997 530.335 86.6493 530.335 82.0779Z" fill="#0B151E"/>
  </g>
  <defs>
    <clipPath id="clip0_856_277">
      <rect width="547.2" height="90" fill="white" transform="translate(0.400391 0.5)"/>
    </clipPath>
  </defs>
</svg>
