<?xml version="1.0" encoding="UTF-8"?>
<svg width="1024px" height="999px" viewBox="0 0 1024 999" version="1.1" xmlns="http://www.w3.org/2000/svg" xmlns:xlink="http://www.w3.org/1999/xlink">
    <title>Path</title>
    <g id="Page-1" stroke="none" stroke-width="1" fill="none" fill-rule="evenodd">
        <g id="github" fill="#FFFFFF">
            <path d="M512,0 C229.12,0 0,229.12 0,512 C0,738.56 146.56,929.92 350.08,997.76 C375.68,1002.24 385.28,986.88 385.28,973.44 C385.28,961.28 384.64,920.96 384.64,878.08 C256,901.76 222.72,846.72 212.48,817.92 C206.72,803.2 181.76,757.76 160,745.6 C142.08,736 116.48,712.32 159.36,711.68 C199.68,711.04 228.48,748.8 238.08,764.16 C284.16,841.6 357.76,819.84 387.2,806.4 C391.68,773.12 405.12,750.72 419.84,737.92 C305.92,725.12 186.88,680.96 186.88,485.12 C186.88,429.44 206.72,383.36 239.36,347.52 C234.24,334.72 216.32,282.24 244.48,211.84 C244.48,211.84 287.36,198.4 385.28,264.32 C426.24,252.8 469.76,247.04 513.28,247.04 C556.8,247.04 600.32,252.8 641.28,264.32 C739.2,197.76 782.08,211.84 782.08,211.84 C810.24,282.24 792.32,334.72 787.2,347.52 C819.84,383.36 839.68,428.8 839.68,485.12 C839.68,681.6 720,725.12 606.08,737.92 C624.64,753.92 640.64,784.64 640.64,832.64 C640.64,901.12 640,956.16 640,973.44 C640,986.88 649.6,1002.88 675.2,997.76 C877.44,929.92 1024,737.92 1024,512 C1024,229.12 794.88,0 512,0 Z" id="Path"></path>
        </g>
    </g>
</svg>