<svg width="67" height="56" style="" viewBox="0 0 67 56" fill="none" xmlns="http://www.w3.org/2000/svg">
	<g clip-path="url(#Frame_clip0-13-21)">
		<path opacity="0.7"
			d="M67.2833 -0.391989V7.81111L67.271 56.3767H54.0947V4.38441L58.2243 0.179307C58.3987 -0.0091926 58.6117 -0.157792 58.8488 -0.256392C59.0858 -0.354992 59.3413 -0.401289 59.5979 -0.391989H67.2833Z"
			fill="#13D461" />
		<path opacity="0.7" fill-rule="evenodd" clip-rule="evenodd"
			d="M47.1312 37.9002C46.2015 36.7082 45.2743 35.5193 44.3642 34.6093C42.6808 32.9318 41.0092 31.2423 39.339 29.5542C38.5054 28.7118 37.6722 27.8696 36.838 27.0295V21.1866L36.8407 21.1745C36.8332 20.9179 36.8812 20.6628 36.9814 20.4265C37.048 20.2693 37.1367 20.1229 37.2444 19.9916L50.0179 7.75461V8.40801V39.6833C50.0171 39.7273 50.0187 39.8796 50.0207 40.0748C50.0255 40.5281 50.0326 41.2131 50.0179 41.3143C49.064 40.3786 48.0963 39.1377 47.1312 37.9002Z"
			fill="#13D461" />
		<path d="M-0.3297 14.7681V33.2004L22.927 56.3767H41.4217L-0.3297 14.7681Z" fill="#472F85" />
		<path d="M-0.3297 56.3767H16.765L-0.3297 39.3445V56.3767Z" fill="#472F85" />
		<path
			d="M47.6566 56.3767H65.9699L10.7375 0.179794C10.5631 -0.0085061 10.3501 -0.157005 10.1131 -0.255505C9.8761 -0.354005 9.6207 -0.400204 9.3642 -0.390904H-0.311199V7.8037L47.6566 56.3767Z"
			fill="#472F85" />
	</g>
	<defs>
		<clipPath id="Frame_clip0-13-21">
			<rect width="67" height="56" fill="white" />
		</clipPath>
	</defs>
</svg>
