<?xml version="1.0" encoding="UTF-8"?>
<svg width="256px" height="256px" viewBox="0 0 256 256" version="1.1" xmlns="http://www.w3.org/2000/svg" xmlns:xlink="http://www.w3.org/1999/xlink">
    <title>sponsor-icon</title>
    <g id="sponsor-icon" stroke="none" stroke-width="1" fill="none" fill-rule="evenodd">
        <g id="replay" transform="translate(14.000000, 0.000000)" fill="#F41C52" fill-rule="nonzero">
            <path d="M102.006496,50.1200789 L59.9927953,25.8620401 L17.9783858,1.60392167 C16.1561516,0.552767405 14.0895177,0 11.9859449,0 C9.88237205,0 7.81582677,0.554332491 5.99412402,1.60617646 C4.17231496,2.65801159 2.65940256,4.17071594 1.60726181,5.99234353 C0.555121063,7.81403301 0,9.88038879 0,11.984059 L0,109.015153 C0,111.119619 0.554970472,113.186063 1.60708465,115.007576 C2.65918996,116.829089 4.1720935,118.342005 5.99385827,119.394238 C7.81564961,120.445587 9.88219488,121 11.9858563,121 C14.0894291,121 16.1561516,120.447356 17.9783858,119.396007 L59.9927953,95.1380564 L102.006496,70.8805481 C103.828642,69.8285803 105.341634,68.3154869 106.393996,66.4933553 C107.446358,64.6713122 108,62.6043374 108,60.5003135 C108,58.3962895 107.446358,56.3293148 106.393996,54.5071832 C105.341634,52.68514 103.828642,51.1720466 102.006496,50.1200789 Z" id="Path"></path>
            <path d="M102.006496,184.119641 L59.9927067,159.861812 L17.9783858,135.603984 C16.1561516,134.552641 14.0894291,134 11.9857677,134 C9.8821063,134 7.81564961,134.554409 5.99385827,135.606637 C4.1720935,136.658865 2.65916339,138.170889 1.60704921,139.993277 C0.554943898,141.81478 0,143.881214 0,145.984785 L0,243.015215 C0,245.118786 0.554943898,247.18522 1.60704921,249.007607 C2.65916339,250.829111 4.1720935,252.34202 5.99385827,253.393363 C7.81564961,254.445591 9.8821063,255 11.9857677,255 C14.0894291,255 16.1561516,254.447359 17.9783858,253.396016 L59.9927067,229.138188 L102.006496,204.880359 C103.828642,203.829016 105.34252,202.315223 106.393996,200.493719 C107.446358,198.671331 108,196.604013 108,194.500442 C108,192.395987 107.446358,190.328669 106.393996,188.507165 C105.34252,186.684777 103.828642,185.171868 102.006496,184.119641 Z" id="Path"></path>
            <path d="M222.006496,116.11933 L179.992618,91.8613955 L137.977854,67.603903 C136.155709,66.5527317 134.089075,66 131.986122,66 C129.882283,66 127.81565,66.5543233 125.993504,67.606202 C124.172244,68.6579922 122.659252,70.170731 121.60689,71.9923308 C120.554528,73.8140191 120,75.8803736 120,77.9840425 L120,175.015162 C120,177.118742 120.554528,179.185185 121.60689,181.007581 C122.659252,182.829092 124.172244,184.342008 125.993504,185.393356 C127.81565,186.445589 129.882283,187 131.986122,187 C134.089075,187 136.155709,186.446473 137.977854,185.396009 L179.992618,161.138074 L222.006496,136.88014 C223.828642,135.827907 225.341634,134.314992 226.393996,132.492596 C227.445472,130.671085 228,128.603757 228,126.500177 C228,124.395712 227.445472,122.328385 226.393996,120.506874 C225.341634,118.684478 223.828642,117.171562 222.006496,116.11933 Z" id="Path"></path>
        </g>
    </g>
</svg>