<svg xmlns="http://www.w3.org/2000/svg" viewBox="0 0 117 46" role="presentation"><path fill="#1e40af" d="M19.5 44.035h-5.105c-1.56 0-2.979-.993-3.617-2.482L.213 14.749h7.8c1.702 0 3.12 1.064 3.687 2.695l5.318 16.309h.142l5.318-16.31a3.897 3.897 0 0 1 3.688-2.694h7.445L23.046 41.553c-.568 1.489-1.986 2.482-3.546 2.482ZM37.014 44.035h9.572V14.748h-9.572v29.285ZM64.598 22.265V33.47c0 1.347.284 2.411.78 3.12.496.71 1.49 1.064 2.836 1.064.497 0 .993-.071 1.49-.142.496-.071.992-.213 1.347-.355l.141 7.091c-.638.213-1.489.426-2.552.638-.993.213-2.057.284-3.05.284-1.985 0-3.616-.213-4.892-.709-1.347-.496-2.41-1.206-3.19-2.127-.78-.922-1.348-2.057-1.703-3.333-.354-1.276-.496-2.695-.496-4.255v-12.48h-4.68v-7.161h4.609v-3.83c0-2.127 1.702-3.9 3.83-3.9h5.6v7.73h6.88v7.161h-6.95ZM93.458 31.555h-1.205c-1.064 0-2.128.07-3.191.141-1.064.071-2.057.284-2.837.568-.85.283-1.56.709-2.056 1.205-.567.496-.85 1.206-.85 2.056 0 .568.14.993.354 1.419.283.425.567.709.992.921.426.213.851.426 1.348.497.496.07.992.142 1.489.142 1.985 0 3.474-.568 4.467-1.631 1.064-1.064 1.56-2.553 1.56-4.397v-.921h-.07Zm-17.585-12.48c1.701-1.631 3.687-2.908 6.027-3.688 2.269-.85 4.609-1.205 7.02-1.205 2.482 0 4.538.284 6.24.922 1.702.638 3.049 1.56 4.113 2.836 1.063 1.276 1.843 2.907 2.34 4.822.496 1.914.709 4.254.709 6.949v14.75h-8.793v-3.12h-.142c-.709 1.204-1.843 2.126-3.403 2.835-1.49.639-3.12.993-4.893.993a12.71 12.71 0 0 1-3.616-.496c-1.277-.284-2.411-.851-3.404-1.56a7.607 7.607 0 0 1-2.553-2.837c-.638-1.205-.993-2.623-.993-4.325 0-2.127.568-3.83 1.702-5.105 1.135-1.277 2.624-2.27 4.468-2.979a22.613 22.613 0 0 1 6.098-1.418c2.198-.213 4.396-.354 6.523-.354v-.568c0-1.418-.496-2.552-1.489-3.19-.992-.71-2.269-1.064-3.758-1.064a9.758 9.758 0 0 0-3.97.85 11.795 11.795 0 0 0-3.263 2.128l-4.963-5.176ZM106.932 44.53V3.9c0-2.127 1.701-3.9 3.829-3.9h5.956v44.53h-9.785ZM47.084 5.39c0 2.977-2.411 5.388-5.319 5.388-2.978 0-5.318-2.41-5.318-5.389C36.447 2.411 38.858 0 41.765 0c2.979 0 5.319 2.41 5.319 5.39Z"></path></svg>
